<svg data-v-423bf9ae="" xmlns="http://www.w3.org/2000/svg" viewBox="0 0 563.1908255993341 177" class="iconAbove"><!----><!----><!----><g data-v-423bf9ae="" id="686e85bd-6627-498c-9dd0-709fc97f2c00" fill="#ffffff" transform="matrix(5.6980053264473165,0,0,5.6980053264473165,-6.723654125063035,93.4129796758771)"><path d="M2.74 14.35L2.74 10.46L4.83 10.46C6.68 10.46 7.70 9.34 7.70 7.52C7.70 5.70 6.68 4.58 4.83 4.58L1.18 4.58L1.18 14.35ZM2.74 5.88L4.59 5.88C5.57 5.88 6.05 6.31 6.05 7.21L6.05 7.81C6.05 8.71 5.57 9.16 4.59 9.16L2.74 9.16ZM12.75 14.52C14.24 14.52 15.25 13.86 15.74 13.02L14.78 12.18C14.38 12.85 13.71 13.29 12.78 13.29C11.54 13.29 10.78 12.49 10.78 11.35L10.78 11.12L15.96 11.12L15.96 10.54C15.96 8.41 14.67 6.96 12.64 6.96C10.58 6.96 9.24 8.43 9.24 10.75C9.24 13.05 10.54 14.52 12.75 14.52ZM12.64 8.12C13.71 8.12 14.41 8.86 14.41 10.00L14.41 10.14L10.78 10.14L10.78 10.04C10.78 8.92 11.55 8.12 12.64 8.12ZM17.86 14.35L23.93 14.35L23.93 13.12L21.31 13.12L21.31 10.42C21.31 9.41 21.97 8.58 23.21 8.58L24.64 8.58L24.64 7.13L23.77 7.13C22.30 7.13 21.67 8.04 21.39 9.04L21.31 9.04L21.31 7.13L17.86 7.13L17.86 8.36L19.78 8.36L19.78 13.12L17.86 13.12ZM29.41 14.52C31.39 14.52 32.59 13.64 32.59 12.18C32.59 10.70 31.33 10.30 30.18 10.14L29.04 9.95C28.43 9.87 27.93 9.70 27.93 9.09C27.93 8.46 28.46 8.12 29.46 8.12C30.59 8.12 31.25 8.55 31.63 8.99L32.48 8.09C31.82 7.38 30.86 6.96 29.51 6.96C27.66 6.96 26.43 7.74 26.43 9.21C26.43 10.70 27.71 11.10 28.84 11.27L29.99 11.45C30.60 11.54 31.09 11.70 31.09 12.32C31.09 13.03 30.42 13.36 29.44 13.36C28.36 13.36 27.59 12.98 26.96 12.29L26.03 13.13C26.71 13.97 27.86 14.52 29.41 14.52ZM37.80 14.52C39.93 14.52 41.23 13.05 41.23 10.74C41.23 8.43 39.93 6.96 37.80 6.96C35.67 6.96 34.37 8.43 34.37 10.74C34.37 13.05 35.67 14.52 37.80 14.52ZM37.80 13.31C36.69 13.31 35.97 12.63 35.97 11.28L35.97 10.19C35.97 8.85 36.69 8.16 37.80 8.16C38.91 8.16 39.63 8.85 39.63 10.19L39.63 11.28C39.63 12.63 38.91 13.31 37.80 13.31ZM44.70 14.35L44.70 9.45C44.70 8.61 45.49 8.20 46.27 8.20C47.25 8.20 47.77 8.78 47.77 9.93L47.77 14.35L49.29 14.35L49.29 9.70C49.29 7.95 48.31 6.96 46.86 6.96C45.67 6.96 45.08 7.60 44.77 8.36L44.70 8.36L44.70 7.13L43.18 7.13L43.18 14.35ZM58.23 14.35L58.23 13.15L57.32 13.15L57.32 9.52C57.32 7.87 56.20 6.96 54.38 6.96C52.85 6.96 51.87 7.62 51.46 8.40L52.37 9.14C52.77 8.54 53.31 8.15 54.24 8.15C55.27 8.15 55.79 8.65 55.79 9.62L55.79 10.18L54.40 10.18C52.26 10.18 51.24 10.93 51.24 12.33C51.24 13.69 52.19 14.52 53.66 14.52C54.80 14.52 55.55 14 55.83 13.13L55.90 13.13C55.99 13.86 56.42 14.35 57.29 14.35ZM54.10 13.40C53.28 13.40 52.78 13.06 52.78 12.42L52.78 12.14C52.78 11.49 53.31 11.14 54.43 11.14L55.79 11.14L55.79 12.19C55.79 12.91 55.08 13.40 54.10 13.40ZM59.85 14.35L66.16 14.35L66.16 13.12L63.77 13.12L63.77 3.99L59.85 3.99L59.85 5.22L62.24 5.22L62.24 13.12L59.85 13.12ZM80.08 14.52C81.97 14.52 82.84 13.43 83.29 12.10L81.87 11.62C81.58 12.52 81.17 13.22 80.07 13.22C78.68 13.22 78.08 12.08 78.08 10.29L78.08 8.64C78.08 6.85 78.68 5.71 80.07 5.71C81.17 5.71 81.58 6.41 81.87 7.31L83.29 6.83C82.84 5.50 81.97 4.41 80.08 4.41C77.60 4.41 76.41 6.23 76.41 9.46C76.41 12.70 77.60 14.52 80.08 14.52ZM86.73 10.40L88.03 10.40L90.10 14.35L91.84 14.35L89.59 10.26C90.94 10.04 91.70 9.00 91.70 7.52C91.70 5.70 90.68 4.58 88.83 4.58L85.18 4.58L85.18 14.35L86.73 14.35ZM86.73 9.14L86.73 5.88L88.61 5.88C89.59 5.88 90.06 6.31 90.06 7.21L90.06 7.81C90.06 8.71 89.59 9.14 88.61 9.14ZM98.63 14.35L100.02 14.35L100.02 4.58L98.21 4.58L96.70 8.46L96.60 8.46L95.10 4.58L93.18 4.58L93.18 14.35L94.57 14.35L94.57 9.67L94.53 6.73L94.64 6.73L96.60 11.76L98.56 6.73L98.67 6.73L98.63 9.67Z"></path></g><!----><g data-v-423bf9ae="" id="5ca1300b-6b96-4f25-8d6c-2ae32a5adfb0" transform="matrix(1.0705555386013454,0,0,1.0705555386013454,228.08605175814552,-0.6255178040809213)" stroke="none" fill="#0EA7FF"><path d="M65.054 11.272L52.68 17.831a2.948 2.948 0 0 0-.712.528l-7.886-1.034a2.989 2.989 0 0 0-.233-.118l-9.37-4.16a7.45 7.45 0 0 1-6.425 3.578l2.944 1.308h6.315v.001h.264v.013c.09-.007.181-.013.272-.013a3.478 3.478 0 0 1 3.454 3.497l-.007 1.074.022.009-.023.173-.121 22.042-.031 5.91-.02 3.385a3.48 3.48 0 0 1-3.178 3.436l2.81 33.866a4.41 4.41 0 0 0 4.759 4.027 4.384 4.384 0 0 0 3.212-1.822 4.421 4.421 0 0 0 2.419.724c1.9 0 3.654-1.239 4.224-3.152l6.324-21.271a4.416 4.416 0 0 0-.121-2.864l-7.421-18.937c-.043-.113-.097-.22-.147-.328l3.369-25.706 1.514-.803a3.492 3.492 0 0 1 3.449-3.243l-.021-.021h2.73l3.885-2.059a7.447 7.447 0 0 1-3.876-4.599zM48.84 82.126l-2.472-29.798L52.81 68.77l-3.97 13.356z"></path><circle cx="48.955" cy="9.313" r="7.446"></circle><path d="M68.101 97.08a5.415 5.415 0 0 1-5.409-5.407V58.459c-.172.021-.346.03-.521.03-2.494-.018-4.489-2.038-4.474-4.503l.179-32.593a4.522 4.522 0 0 1 2.55-3.997L60 16.95l9.291-.021-.009.006h7.938c.068.002 2.289.104 3.727.104.338 0 .563-.006.711-.013l.092-.118.542.046a4.495 4.495 0 0 1 4.095 4.484l-.179 32.592a4.485 4.485 0 0 1-4.472 4.446 4.921 4.921 0 0 1-.345-.015v33.033a5.415 5.415 0 0 1-5.407 5.409 5.392 5.392 0 0 1-3.862-1.624 5.43 5.43 0 0 1-4.021 1.801zm-3.41-41.557v36.149a3.411 3.411 0 0 0 3.409 3.407 3.425 3.425 0 0 0 3.08-1.959l.854-1.808.934 1.769a3.405 3.405 0 0 0 6.422-1.588V55.698l1.387.582c.303.127.621.192.944.195a2.482 2.482 0 0 0 2.485-2.459l.179-32.591a2.488 2.488 0 0 0-2.082-2.458c-.32.065-.749.07-1.357.07-1.484 0-3.68-.101-3.772-.105l-14.828.018a2.493 2.493 0 0 0-2.46 2.31l-.01.145-.179 32.594a2.48 2.48 0 0 0 2.46 2.491c.388 0 .75-.086 1.092-.254l1.442-.713zM24.017 97.08a5.414 5.414 0 0 1-5.407-5.407V58.459a4.466 4.466 0 0 1-3.705-1.303 4.438 4.438 0 0 1-1.29-3.172l.178-32.591a4.46 4.46 0 0 1 3.195-4.252l.162-.049.169.007c2.932.12 6.68-.159 6.711-.162l13.284-.004.469.002h.152l.643.002v.059a4.446 4.446 0 0 1 2.435 1.269 4.447 4.447 0 0 1 1.291 3.172l-.002.4.09.037-.096.882-.17 31.272c-.016 2.288-1.813 4.232-4.093 4.426a4.246 4.246 0 0 1-.724.006v33.033a5.415 5.415 0 0 1-5.408 5.409 5.391 5.391 0 0 1-3.861-1.623 5.433 5.433 0 0 1-4.023 1.801zM20.61 55.525v36.147a3.41 3.41 0 0 0 3.407 3.407c1.31 0 2.519-.769 3.08-1.958l.854-1.811.935 1.771a3.403 3.403 0 0 0 3.014 1.821 3.412 3.412 0 0 0 3.408-3.409V55.698l1.387.582c.303.127.62.192.943.195.079 0 .144-.005.208-.012a2.493 2.493 0 0 0 2.277-2.447l.174-31.422-.002-.096.007-1.074a2.457 2.457 0 0 0-.714-1.753 2.459 2.459 0 0 0-1.746-.737c-.06 0-.125.005-.19.01l-1.076.082v-.092l-8.972-.001-3.501.001c-.039.006-3.685.273-6.683.17a2.5 2.5 0 0 0-1.628 2.302l-.178 32.592c-.005.66.249 1.282.713 1.753a2.445 2.445 0 0 0 2.84.483l1.443-.709z"></path><path d="M81.475 13.683l-2.434-1.568c-.033.076-.065.153-.101.229a7.423 7.423 0 0 1-4.359 3.89l2.639 1.701 1.069.689c.343.22.712.36 1.089.426a2.943 2.943 0 0 0 2.828-1.1 2.939 2.939 0 0 0-.731-4.267zM21.076 11.599l-3.463 5.699a2.943 2.943 0 0 0 .985 4.037c1 .608 2.216.545 3.134-.054.355-.232.668-.543.903-.931l1.468-2.415 1.146-1.884c-.1-.042-.198-.083-.296-.129a7.424 7.424 0 0 1-3.877-4.323z"></path><path d="M72.19 17.627a8.368 8.368 0 0 1-3.579-.801l-.118-.059a8.473 8.473 0 0 1-4.398-5.213 8.44 8.44 0 0 1 .458-5.962A8.483 8.483 0 0 1 72.205.731c1.243 0 2.448.27 3.582.801a8.414 8.414 0 0 1 4.173 10.977l-.112.256a8.384 8.384 0 0 1-4.946 4.416 8.471 8.471 0 0 1-2.712.446zm.015-14.896a6.48 6.48 0 0 0-5.842 3.71 6.449 6.449 0 0 0-.35 4.55 6.468 6.468 0 0 0 3.356 3.979l-.334.95.425-.905a6.37 6.37 0 0 0 2.729.611c.704 0 1.4-.115 2.07-.341a6.392 6.392 0 0 0 3.774-3.367l.06-.135c1.406-3.275.008-6.955-3.157-8.441a6.393 6.393 0 0 0-2.731-.611zM28.11 17.625h-.064a8.376 8.376 0 0 1-3.518-.8 8.373 8.373 0 0 1-4.398-4.902 8.407 8.407 0 0 1 .339-6.332A8.486 8.486 0 0 1 28.121.73c1.244 0 2.449.27 3.583.801 2.042.958 3.59 2.655 4.356 4.777s.661 4.416-.298 6.459a8.534 8.534 0 0 1-.427.796 8.49 8.49 0 0 1-7.225 4.062zm.011-14.894a6.48 6.48 0 0 0-5.842 3.71 6.412 6.412 0 0 0-.258 4.832 6.386 6.386 0 0 0 3.612 3.854 6.381 6.381 0 0 0 2.428.498l.049 1v-1a6.482 6.482 0 0 0 5.841-3.705 6.41 6.41 0 0 0 .228-4.932 6.402 6.402 0 0 0-3.325-3.646 6.405 6.405 0 0 0-2.733-.611z"></path></g><!----></svg>